<svg width="35" height="35" viewBox="0 0 35 35" fill="none" xmlns="http://www.w3.org/2000/svg">
<path d="M34.2564 6.06799V18.9418C34.2663 20.5005 33.5781 21.9837 32.3766 22.9931C31.4761 23.7309 30.3456 24.1389 29.176 24.1483C28.8943 24.1731 28.6109 24.1731 28.3292 24.1483L12.2412 21.2855V3.74099L28.3292 0.928501C29.7747 0.681972 31.2565 1.08036 32.3766 2.01667C33.5724 3.03033 34.2593 4.51076 34.2564 6.06799Z" fill="#1F7CFF"/>
<path d="M8.85431 4.3269V20.6996L7.16083 20.3983L5.46736 20.1137L4.62063 19.963C3.67768 19.8108 2.79725 19.3988 2.08042 18.7744C0.982015 17.7494 0.367876 16.3166 0.386948 14.8235V10.203C0.34297 7.69893 2.13119 5.52812 4.62063 5.06351L8.85431 4.3269Z" fill="#1F7CFF"/>
<path d="M10.5478 21.001V30.1081C10.5478 32.4195 8.65229 34.2933 6.3141 34.2933C3.9759 34.2933 2.08042 32.4195 2.08042 30.1081V19.2264C2.05451 19.0768 2.05451 18.924 2.08042 18.7744C2.7784 19.3877 3.63389 19.799 4.55289 19.963L5.39962 20.1137L7.09309 20.3983L10.5478 21.001Z" fill="#1F7CFF"/>
</svg>
