<svg width="50" height="51" viewBox="0 0 50 51" fill="none" xmlns="http://www.w3.org/2000/svg">
<rect x="0.505646" y="0.629883" width="49.4943" height="49.4943" rx="8" fill="#1F7CFF"/>
<mask id="mask0_2_8244" style="mask-type:alpha" maskUnits="userSpaceOnUse" x="0" y="0" width="50" height="51">
<rect x="0.505646" y="0.629883" width="49.4943" height="49.4943" rx="8" fill="#5C5E84"/>
</mask>
<g mask="url(#mask0_2_8244)">
<rect x="-25.2314" y="27.3569" width="49.4943" height="49.4943" rx="8" fill="#F75C4E"/>
<rect x="8.42477" y="-8.27905" width="49.4943" height="49.4943" rx="8" fill="#101C2C"/>
</g>
<path d="M24.252 29.452C23.412 30.64 22.218 31.234 20.67 31.234C19.122 31.234 17.928 30.64 17.088 29.452C16.236 28.252 15.81 26.668 15.81 24.7C15.81 22.732 16.236 21.148 17.088 19.948C17.928 18.76 19.122 18.166 20.67 18.166C22.218 18.166 23.412 18.76 24.252 19.948C25.104 21.148 25.53 22.732 25.53 24.7C25.53 26.668 25.104 28.252 24.252 29.452ZM17.484 24.7C17.484 26.26 17.76 27.466 18.312 28.318C18.864 29.17 19.65 29.596 20.67 29.596C21.69 29.596 22.476 29.17 23.028 28.318C23.592 27.466 23.874 26.26 23.874 24.7C23.874 23.14 23.592 21.934 23.028 21.082C22.476 20.218 21.69 19.786 20.67 19.786C19.65 19.786 18.864 20.212 18.312 21.064C17.76 21.916 17.484 23.128 17.484 24.7ZM34.8934 31H26.7574V29.632L31.2034 25.096C32.3914 23.908 32.9854 22.888 32.9854 22.036C32.9854 21.34 32.7694 20.794 32.3374 20.398C31.9174 19.99 31.3894 19.786 30.7534 19.786C29.5654 19.786 28.7014 20.35 28.1614 21.478L26.7574 20.65C27.1414 19.846 27.6814 19.234 28.3774 18.814C29.0734 18.382 29.8594 18.166 30.7354 18.166C31.8034 18.166 32.7214 18.514 33.4894 19.21C34.2694 19.918 34.6594 20.854 34.6594 22.018C34.6594 23.29 33.9094 24.676 32.4094 26.176L29.1874 29.38H34.8934V31Z" fill="white"/>
</svg>
