<svg width="50" height="50" viewBox="0 0 50 50" fill="none" xmlns="http://www.w3.org/2000/svg">
<rect x="0.129395" y="0.0537109" width="49.4943" height="49.4943" rx="8" fill="#1F7CFF"/>
<mask id="mask0_2_8254" style="mask-type:alpha" maskUnits="userSpaceOnUse" x="0" y="0" width="50" height="50">
<rect x="0.129395" y="0.0537109" width="49.4943" height="49.4943" rx="8" fill="#5C5E84"/>
</mask>
<g mask="url(#mask0_2_8254)">
<rect x="-25.6076" y="26.7809" width="49.4943" height="49.4943" rx="8" fill="#F75C4E"/>
<rect x="8.04852" y="-8.85522" width="49.4943" height="49.4943" rx="8" fill="#101C2C"/>
</g>
<path d="M24.2298 28.4146C23.3898 29.6026 22.1958 30.1966 20.6478 30.1966C19.0998 30.1966 17.9058 29.6026 17.0658 28.4146C16.2138 27.2146 15.7878 25.6306 15.7878 23.6626C15.7878 21.6946 16.2138 20.1106 17.0658 18.9106C17.9058 17.7226 19.0998 17.1286 20.6478 17.1286C22.1958 17.1286 23.3898 17.7226 24.2298 18.9106C25.0818 20.1106 25.5078 21.6946 25.5078 23.6626C25.5078 25.6306 25.0818 27.2146 24.2298 28.4146ZM17.4618 23.6626C17.4618 25.2226 17.7378 26.4286 18.2898 27.2806C18.8418 28.1326 19.6278 28.5586 20.6478 28.5586C21.6678 28.5586 22.4538 28.1326 23.0058 27.2806C23.5698 26.4286 23.8518 25.2226 23.8518 23.6626C23.8518 22.1026 23.5698 20.8966 23.0058 20.0446C22.4538 19.1806 21.6678 18.7486 20.6478 18.7486C19.6278 18.7486 18.8418 19.1746 18.2898 20.0266C17.7378 20.8786 17.4618 22.0906 17.4618 23.6626ZM29.2869 22.2766H31.1229C32.3109 22.2766 33.3129 22.6306 34.1289 23.3386C34.9569 24.0466 35.3709 25.0126 35.3709 26.2366C35.3709 27.4726 34.9509 28.4386 34.1109 29.1346C33.2589 29.8426 32.2389 30.1966 31.0509 30.1966C30.0669 30.1966 29.1969 29.9626 28.4409 29.4946C27.6969 29.0146 27.1809 28.3486 26.8929 27.4966L28.3149 26.6866C28.4829 27.2866 28.8069 27.7486 29.2869 28.0726C29.7669 28.3966 30.3549 28.5586 31.0509 28.5586C31.8549 28.5586 32.4969 28.3546 32.9769 27.9466C33.4689 27.5266 33.7149 26.9566 33.7149 26.2366C33.7149 25.5166 33.4689 24.9466 32.9769 24.5266C32.4969 24.1066 31.8669 23.8966 31.0869 23.8966H27.5229L27.9909 17.3626H34.8849V18.9286H29.5029L29.2869 22.2766Z" fill="white"/>
</svg>
