<svg width="50" height="50" viewBox="0 0 50 50" fill="none" xmlns="http://www.w3.org/2000/svg">
<rect y="0.423828" width="49.4943" height="49.4943" rx="8" fill="#1F7CFF"/>
<mask id="mask0_2_8224" style="mask-type:alpha" maskUnits="userSpaceOnUse" x="0" y="0" width="50" height="50">
<rect y="0.423828" width="49.4943" height="49.4943" rx="8" fill="#5C5E84"/>
</mask>
<g mask="url(#mask0_2_8224)">
<rect x="-25.7371" y="27.1508" width="49.4943" height="49.4943" rx="8" fill="#F75C4E"/>
<rect x="7.91898" y="-8.48511" width="49.4943" height="49.4943" rx="8" fill="#101C2C"/>
</g>
<path d="M24.252 28.452C23.412 29.64 22.218 30.234 20.67 30.234C19.122 30.234 17.928 29.64 17.088 28.452C16.236 27.252 15.81 25.668 15.81 23.7C15.81 21.732 16.236 20.148 17.088 18.948C17.928 17.76 19.122 17.166 20.67 17.166C22.218 17.166 23.412 17.76 24.252 18.948C25.104 20.148 25.53 21.732 25.53 23.7C25.53 25.668 25.104 27.252 24.252 28.452ZM17.484 23.7C17.484 25.26 17.76 26.466 18.312 27.318C18.864 28.17 19.65 28.596 20.67 28.596C21.69 28.596 22.476 28.17 23.028 27.318C23.592 26.466 23.874 25.26 23.874 23.7C23.874 22.14 23.592 20.934 23.028 20.082C22.476 19.218 21.69 18.786 20.67 18.786C19.65 18.786 18.864 19.212 18.312 20.064C17.76 20.916 17.484 22.128 17.484 23.7ZM34.8699 26.04H36.3999V27.606H34.8699V30H33.1959V27.606H26.7699V26.04L31.2879 17.4H33.0879L28.5699 26.04H33.1959V22.476H34.8699V26.04Z" fill="white"/>
</svg>
