<svg width="50" height="50" viewBox="0 0 50 50" fill="none" xmlns="http://www.w3.org/2000/svg">
<rect width="49.4943" height="49.4943" rx="8" fill="#1F7CFF"/>
<mask id="mask0_2_8234" style="mask-type:alpha" maskUnits="userSpaceOnUse" x="0" y="0" width="50" height="50">
<rect width="49.4943" height="49.4943" rx="8" fill="#5C5E84"/>
</mask>
<g mask="url(#mask0_2_8234)">
<rect x="-25.7371" y="26.7269" width="49.4943" height="49.4943" rx="8" fill="#F75C4E"/>
<rect x="7.91895" y="-8.90894" width="49.4943" height="49.4943" rx="8" fill="#101C2C"/>
</g>
<path d="M24.1002 28.3609C23.2602 29.5489 22.0662 30.1429 20.5182 30.1429C18.9702 30.1429 17.7762 29.5489 16.9362 28.3609C16.0842 27.1609 15.6582 25.5769 15.6582 23.6089C15.6582 21.6409 16.0842 20.0569 16.9362 18.8569C17.7762 17.6689 18.9702 17.0749 20.5182 17.0749C22.0662 17.0749 23.2602 17.6689 24.1002 18.8569C24.9522 20.0569 25.3782 21.6409 25.3782 23.6089C25.3782 25.5769 24.9522 27.1609 24.1002 28.3609ZM17.3322 23.6089C17.3322 25.1689 17.6082 26.3749 18.1602 27.2269C18.7122 28.0789 19.4982 28.5049 20.5182 28.5049C21.5382 28.5049 22.3242 28.0789 22.8762 27.2269C23.4402 26.3749 23.7222 25.1689 23.7222 23.6089C23.7222 22.0489 23.4402 20.8429 22.8762 19.9909C22.3242 19.1269 21.5382 18.6949 20.5182 18.6949C19.4982 18.6949 18.7122 19.1209 18.1602 19.9729C17.6082 20.8249 17.3322 22.0369 17.3322 23.6089ZM34.1882 18.7849L31.4522 22.4749C32.4362 22.6549 33.2282 23.0749 33.8282 23.7349C34.4282 24.3949 34.7282 25.2109 34.7282 26.1829C34.7282 27.4189 34.3082 28.3849 33.4682 29.0809C32.6162 29.7889 31.5962 30.1429 30.4082 30.1429C29.4242 30.1429 28.5662 29.9209 27.8342 29.4769C27.1022 29.0329 26.5802 28.4029 26.2682 27.5869L27.6722 26.7589C28.0442 27.9229 28.9562 28.5049 30.4082 28.5049C31.2002 28.5049 31.8362 28.3009 32.3162 27.8929C32.8082 27.4729 33.0542 26.9029 33.0542 26.1829C33.0542 25.4629 32.8082 24.8929 32.3162 24.4729C31.8362 24.0529 31.2002 23.8429 30.4082 23.8429H29.9762L29.3102 22.8169L32.2262 18.8749H26.6282V17.3089H34.1882V18.7849Z" fill="white"/>
</svg>
