<svg width="50" height="50" viewBox="0 0 50 50" fill="none" xmlns="http://www.w3.org/2000/svg">
<rect x="0.376282" width="49.4943" height="49.4943" rx="8" fill="#1F7CFF"/>
<mask id="mask0_2_8214" style="mask-type:alpha" maskUnits="userSpaceOnUse" x="0" y="0" width="50" height="50">
<path d="M0.376282 16C0.376282 8.45752 0.376282 4.68629 2.71943 2.34315C5.06257 0 8.83381 0 16.3763 0H33.8706C41.4131 0 45.1843 0 47.5275 2.34315C49.8706 4.68629 49.8706 8.45753 49.8706 16V33.4944C49.8706 41.0368 49.8706 44.8081 47.5275 47.1512C45.1843 49.4943 41.4131 49.4943 33.8706 49.4943H16.3763C8.83381 49.4943 5.06257 49.4943 2.71943 47.1512C0.376282 44.8081 0.376282 41.0368 0.376282 33.4944V16Z" fill="#5C5E84"/>
</mask>
<g mask="url(#mask0_2_8214)">
<rect x="-25.3608" y="26.7268" width="49.4943" height="49.4943" rx="8" fill="#F75C4E"/>
<rect x="8.29524" y="-8.90894" width="49.4943" height="49.4943" rx="8" fill="#101C2C"/>
</g>
<path d="M24.252 28.452C23.412 29.64 22.218 30.234 20.67 30.234C19.122 30.234 17.928 29.64 17.088 28.452C16.236 27.252 15.81 25.668 15.81 23.7C15.81 21.732 16.236 20.148 17.088 18.948C17.928 17.76 19.122 17.166 20.67 17.166C22.218 17.166 23.412 17.76 24.252 18.948C25.104 20.148 25.53 21.732 25.53 23.7C25.53 25.668 25.104 27.252 24.252 28.452ZM17.484 23.7C17.484 25.26 17.76 26.466 18.312 27.318C18.864 28.17 19.65 28.596 20.67 28.596C21.69 28.596 22.476 28.17 23.028 27.318C23.592 26.466 23.874 25.26 23.874 23.7C23.874 22.14 23.592 20.934 23.028 20.082C22.476 19.218 21.69 18.786 20.67 18.786C19.65 18.786 18.864 19.212 18.312 20.064C17.76 20.916 17.484 22.128 17.484 23.7ZM26.2383 18.552L29.5503 17.4H30.9903V30H29.3343V19.2L26.6523 19.992L26.2383 18.552Z" fill="white"/>
</svg>
