<svg width="125" height="20" viewBox="0 0 125 20" fill="none" xmlns="http://www.w3.org/2000/svg">
<path d="M9.58768 0L12.2542 6.81167L19.1754 7.40122L13.9021 12.2006L15.5132 19.3766L9.58768 15.5312L3.66217 19.3766L5.27322 12.2006L0 7.40122L6.9212 6.81167L9.58768 0Z" fill="#F24C27"/>
<path d="M35.5571 0L38.2236 6.81167L45.1448 7.40122L39.8716 12.2006L41.4826 19.3766L35.5571 15.5312L29.6316 19.3766L31.2426 12.2006L25.9694 7.40122L32.8906 6.81167L35.5571 0Z" fill="#F24C27"/>
<path d="M62.0199 0L64.6864 6.81167L71.6076 7.40122L66.3344 12.2006L67.9454 19.3766L62.0199 15.5312L56.0944 19.3766L57.7055 12.2006L52.4323 7.40122L59.3534 6.81167L62.0199 0Z" fill="#F24C27"/>
<path d="M88.4828 0L91.1492 6.81167L98.0704 7.40122L92.7972 12.2006L94.4083 19.3766L88.4828 15.5312L82.5572 19.3766L84.1683 12.2006L78.8951 7.40122L85.8163 6.81167L88.4828 0Z" fill="#F24C27"/>
<path d="M114.946 0L117.612 6.81167L124.533 7.40122L119.26 12.2006L120.871 19.3766L114.946 15.5312L109.02 19.3766L110.631 12.2006L105.358 7.40122L112.279 6.81167L114.946 0Z" fill="#F24C27"/>
</svg>
